<?xml version="1.0" encoding="utf-8"?>
<!-- Generator: Adobe Illustrator 23.0.6, SVG Export Plug-In . SVG Version: 6.00 Build 0)  -->
<svg version="1.1" id="Warstwa_1" xmlns="http://www.w3.org/2000/svg" xmlns:xlink="http://www.w3.org/1999/xlink" x="0px" y="0px"
	 viewBox="0 0 500 500" style="enable-background:new 0 0 500 500;" xml:space="preserve">
<style type="text/css">
	.st0{fill:#61DAFB;}
</style>
<g>
	<path class="st0" d="M418.4,247.2c0-22.3-27.9-43.5-70.8-56.6c9.9-43.7,5.5-78.4-13.9-89.5c-4.5-2.6-9.7-3.8-15.4-3.8v15.3
		c3.2,0,5.7,0.6,7.8,1.8c9.3,5.4,13.4,25.7,10.2,52c-0.8,6.5-2,13.3-3.5,20.2c-13.5-3.3-28.2-5.8-43.6-7.5
		c-9.3-12.7-18.9-24.2-28.6-34.3c22.4-20.8,43.4-32.2,57.7-32.2V97.2c-18.9,0-43.6,13.5-68.6,36.8c-25-23.2-49.7-36.5-68.6-36.5
		v15.3c14.2,0,35.3,11.3,57.7,32c-9.6,10.1-19.2,21.6-28.4,34.3c-15.5,1.6-30.2,4.2-43.7,7.6c-1.6-6.9-2.7-13.5-3.6-19.9
		c-3.2-26.2,0.8-46.6,10-52c2.1-1.2,4.7-1.8,7.9-1.8V97.5c-5.8,0-11,1.2-15.5,3.8c-19.3,11.1-23.6,45.8-13.7,89.3
		c-42.7,13.2-70.5,34.3-70.5,56.5c0,22.3,27.9,43.5,70.8,56.6c-9.9,43.7-5.5,78.4,13.9,89.5c4.5,2.6,9.7,3.8,15.4,3.8
		c18.9,0,43.6-13.5,68.6-36.8c25,23.2,49.7,36.5,68.6,36.5c5.8,0,11-1.2,15.5-3.8c19.3-11.1,23.6-45.8,13.7-89.3
		C390.6,290.6,418.4,269.5,418.4,247.2L418.4,247.2z M329,201.4c-2.5,8.9-5.7,18-9.3,27.1c-2.8-5.5-5.8-11-9-16.5
		c-3.2-5.5-6.5-10.8-9.9-16.1C310.6,197.4,320,199.2,329,201.4L329,201.4z M297.6,274.5c-5.4,9.3-10.8,18.1-16.5,26.2
		c-10.2,0.9-20.6,1.4-31,1.4c-10.4,0-20.7-0.5-30.9-1.3c-5.7-8.2-11.3-16.9-16.6-26.1c-5.2-9-10-18.1-14.3-27.3
		c4.3-9.2,9.1-18.4,14.2-27.4c5.4-9.3,10.8-18.1,16.5-26.2c10.2-0.9,20.6-1.4,31-1.4c10.4,0,20.7,0.5,30.9,1.3
		c5.7,8.2,11.3,16.9,16.6,26.1c5.2,9,10,18.1,14.3,27.3C307.5,256.3,302.7,265.5,297.6,274.5L297.6,274.5z M319.8,265.6
		c3.7,9.2,6.9,18.4,9.5,27.3c-9,2.2-18.5,4.1-28.3,5.5c3.4-5.3,6.7-10.7,9.9-16.3C314,276.7,316.9,271.1,319.8,265.6L319.8,265.6z
		 M250.1,338.9c-6.4-6.6-12.8-13.9-19.1-22c6.2,0.3,12.5,0.5,18.9,0.5c6.5,0,12.8-0.1,19.1-0.5C262.8,324.9,256.5,332.3,250.1,338.9
		z M199.1,298.4c-9.8-1.4-19.2-3.2-28.2-5.4c2.5-8.9,5.7-18,9.3-27.1c2.8,5.5,5.8,11,9,16.5C192.4,287.9,195.7,293.2,199.1,298.4z
		 M249.8,155.5c6.4,6.6,12.8,13.9,19.1,22c-6.2-0.3-12.5-0.5-18.9-0.5c-6.5,0-12.8,0.1-19.1,0.5
		C237.1,169.5,243.5,162.1,249.8,155.5z M199,196c-3.4,5.3-6.7,10.7-9.9,16.3c-3.2,5.5-6.1,11-8.9,16.5c-3.7-9.2-6.9-18.4-9.5-27.3
		C179.7,199.3,189.2,197.4,199,196L199,196z M136.8,282c-24.3-10.4-40-24-40-34.7c0-10.8,15.7-24.4,40-34.7c5.9-2.5,12.4-4.8,19-6.9
		c3.9,13.5,9.1,27.5,15.4,41.8c-6.3,14.3-11.4,28.2-15.2,41.6C149.3,286.8,142.8,284.5,136.8,282L136.8,282z M173.8,380.1
		c-9.3-5.4-13.4-25.7-10.2-52c0.8-6.5,2-13.3,3.5-20.2c13.5,3.3,28.2,5.8,43.6,7.5c9.3,12.7,18.9,24.2,28.6,34.3
		c-22.4,20.8-43.4,32.2-57.7,32.2C178.5,381.9,175.8,381.2,173.8,380.1L173.8,380.1z M336.7,327.8c3.2,26.2-0.8,46.6-10,52
		c-2.1,1.2-4.7,1.8-7.9,1.8c-14.2,0-35.3-11.3-57.7-32c9.6-10.1,19.2-21.6,28.4-34.3c15.5-1.6,30.2-4.2,43.7-7.6
		C334.7,314.7,335.9,321.4,336.7,327.8z M363.1,282c-5.9,2.5-12.4,4.8-19,6.9c-3.9-13.5-9.1-27.5-15.4-41.8
		c6.3-14.3,11.4-28.2,15.2-41.6c6.8,2.1,13.3,4.5,19.3,7c24.3,10.4,40,24,40,34.7C403.1,258,387.4,271.7,363.1,282L363.1,282z"/>
	<circle class="st0" cx="249.9" cy="247.2" r="31.4"/>
	<path class="st0" d="M318.3,97.2"/>
</g>
</svg>
